<mxfile host="app.diagrams.net" modified="2021-09-04T09:34:55.541Z" agent="5.0 (Windows NT 10.0; Win64; x64) AppleWebKit/537.36 (KHTML, like Gecko) Chrome/92.0.4515.159 Safari/537.36" etag="58y_i45jphyovd3aZKy-" version="15.0.6" type="github">
  <diagram id="m-lbJpJ0AXpr4bmW3Qig" name="Page-1">
    <mxGraphModel dx="3303" dy="2537" grid="1" gridSize="10" guides="1" tooltips="1" connect="1" arrows="1" fold="1" page="1" pageScale="1" pageWidth="827" pageHeight="1169" math="0" shadow="0">
      <root>
        <mxCell id="0" />
        <mxCell id="1" parent="0" />
        <mxCell id="O2er0Q2vwYw4dRHvIkDH-1" value="passenger" style="swimlane;childLayout=stackLayout;horizontal=1;startSize=30;horizontalStack=0;rounded=1;fontSize=14;fontStyle=0;strokeWidth=2;resizeParent=0;resizeLast=1;shadow=0;dashed=0;align=center;" vertex="1" parent="1">
          <mxGeometry x="10" y="123.75" width="160" height="120" as="geometry" />
        </mxCell>
        <mxCell id="O2er0Q2vwYw4dRHvIkDH-2" value="first_name(string)&#xa;last_name(string)" style="align=left;strokeColor=none;fillColor=none;spacingLeft=4;fontSize=12;verticalAlign=top;resizable=0;rotatable=0;part=1;" vertex="1" parent="O2er0Q2vwYw4dRHvIkDH-1">
          <mxGeometry y="30" width="160" height="90" as="geometry" />
        </mxCell>
        <mxCell id="O2er0Q2vwYw4dRHvIkDH-3" value="flight" style="swimlane;childLayout=stackLayout;horizontal=1;startSize=30;horizontalStack=0;rounded=1;fontSize=14;fontStyle=0;strokeWidth=2;resizeParent=0;resizeLast=1;shadow=0;dashed=0;align=center;" vertex="1" parent="1">
          <mxGeometry x="420" y="120" width="190" height="127.5" as="geometry" />
        </mxCell>
        <mxCell id="O2er0Q2vwYw4dRHvIkDH-4" value="Number(string)&#xa;DepartureDateTime(DATETIME)&#xa;ArrivalDateTime(DATETIME)&#xa;DepartureTime(TIME)&#xa;ArrivalTime(TIME)&#xa;Distance(INT)&#xa;" style="align=left;strokeColor=none;fillColor=none;spacingLeft=4;fontSize=12;verticalAlign=top;resizable=0;rotatable=0;part=1;" vertex="1" parent="O2er0Q2vwYw4dRHvIkDH-3">
          <mxGeometry y="30" width="190" height="97.5" as="geometry" />
        </mxCell>
        <mxCell id="O2er0Q2vwYw4dRHvIkDH-9" value="Airport" style="swimlane;childLayout=stackLayout;horizontal=1;startSize=30;horizontalStack=0;rounded=1;fontSize=14;fontStyle=0;strokeWidth=2;resizeParent=0;resizeLast=1;shadow=0;dashed=0;align=center;" vertex="1" parent="1">
          <mxGeometry x="440" y="-30" width="160" height="120" as="geometry" />
        </mxCell>
        <mxCell id="O2er0Q2vwYw4dRHvIkDH-10" value="IATACode(string)&#xa;Name(string)&#xa;City(string)&#xa;State(string)" style="align=left;strokeColor=none;fillColor=none;spacingLeft=4;fontSize=12;verticalAlign=top;resizable=0;rotatable=0;part=1;" vertex="1" parent="O2er0Q2vwYw4dRHvIkDH-9">
          <mxGeometry y="30" width="160" height="90" as="geometry" />
        </mxCell>
        <mxCell id="O2er0Q2vwYw4dRHvIkDH-13" value="" style="edgeStyle=entityRelationEdgeStyle;fontSize=12;html=1;endArrow=ERmany;startArrow=ERmany;" edge="1" parent="1" source="O2er0Q2vwYw4dRHvIkDH-10" target="O2er0Q2vwYw4dRHvIkDH-4">
          <mxGeometry width="100" height="100" relative="1" as="geometry">
            <mxPoint x="320" y="330" as="sourcePoint" />
            <mxPoint x="420" y="230" as="targetPoint" />
          </mxGeometry>
        </mxCell>
        <mxCell id="O2er0Q2vwYw4dRHvIkDH-14" value="Departure/Arrival" style="edgeLabel;html=1;align=center;verticalAlign=middle;resizable=0;points=[];" vertex="1" connectable="0" parent="O2er0Q2vwYw4dRHvIkDH-13">
          <mxGeometry x="0.0536" y="2" relative="1" as="geometry">
            <mxPoint x="28" y="-13" as="offset" />
          </mxGeometry>
        </mxCell>
        <mxCell id="O2er0Q2vwYw4dRHvIkDH-15" value="Order" style="swimlane;childLayout=stackLayout;horizontal=1;startSize=30;horizontalStack=0;rounded=1;fontSize=14;fontStyle=0;strokeWidth=2;resizeParent=0;resizeLast=1;shadow=0;dashed=0;align=center;" vertex="1" parent="1">
          <mxGeometry x="220" y="350" width="160" height="120" as="geometry" />
        </mxCell>
        <mxCell id="O2er0Q2vwYw4dRHvIkDH-16" value="TicketNumber(string)&#xa;Price(float)&#xa;" style="align=left;strokeColor=none;fillColor=none;spacingLeft=4;fontSize=12;verticalAlign=top;resizable=0;rotatable=0;part=1;" vertex="1" parent="O2er0Q2vwYw4dRHvIkDH-15">
          <mxGeometry y="30" width="160" height="90" as="geometry" />
        </mxCell>
        <mxCell id="O2er0Q2vwYw4dRHvIkDH-20" value="" style="edgeStyle=entityRelationEdgeStyle;fontSize=12;html=1;endArrow=ERoneToMany;exitX=1.011;exitY=0.402;exitDx=0;exitDy=0;exitPerimeter=0;" edge="1" parent="1" source="O2er0Q2vwYw4dRHvIkDH-2" target="O2er0Q2vwYw4dRHvIkDH-16">
          <mxGeometry width="100" height="100" relative="1" as="geometry">
            <mxPoint x="320" y="380" as="sourcePoint" />
            <mxPoint x="100" y="440" as="targetPoint" />
          </mxGeometry>
        </mxCell>
        <mxCell id="O2er0Q2vwYw4dRHvIkDH-22" value="purchase" style="edgeLabel;html=1;align=center;verticalAlign=middle;resizable=0;points=[];" vertex="1" connectable="0" parent="O2er0Q2vwYw4dRHvIkDH-20">
          <mxGeometry x="-0.0869" relative="1" as="geometry">
            <mxPoint as="offset" />
          </mxGeometry>
        </mxCell>
        <mxCell id="O2er0Q2vwYw4dRHvIkDH-21" value="" style="edgeStyle=entityRelationEdgeStyle;fontSize=12;html=1;endArrow=ERoneToMany;exitX=0;exitY=0.5;exitDx=0;exitDy=0;" edge="1" parent="1" source="O2er0Q2vwYw4dRHvIkDH-4" target="O2er0Q2vwYw4dRHvIkDH-16">
          <mxGeometry width="100" height="100" relative="1" as="geometry">
            <mxPoint x="380" y="206" as="sourcePoint" />
            <mxPoint x="420" y="280" as="targetPoint" />
          </mxGeometry>
        </mxCell>
        <mxCell id="O2er0Q2vwYw4dRHvIkDH-23" value="issued for" style="edgeLabel;html=1;align=center;verticalAlign=middle;resizable=0;points=[];" vertex="1" connectable="0" parent="O2er0Q2vwYw4dRHvIkDH-21">
          <mxGeometry x="-0.0505" y="-1" relative="1" as="geometry">
            <mxPoint y="-8" as="offset" />
          </mxGeometry>
        </mxCell>
        <mxCell id="O2er0Q2vwYw4dRHvIkDH-26" value="Airlines" style="swimlane;childLayout=stackLayout;horizontal=1;startSize=30;horizontalStack=0;rounded=1;fontSize=14;fontStyle=0;strokeWidth=2;resizeParent=0;resizeLast=1;shadow=0;dashed=0;align=center;" vertex="1" parent="1">
          <mxGeometry x="200" y="20" width="160" height="120" as="geometry" />
        </mxCell>
        <mxCell id="O2er0Q2vwYw4dRHvIkDH-27" value="Name(string)&#xa;ConfirmationNumber(string)" style="align=left;strokeColor=none;fillColor=none;spacingLeft=4;fontSize=12;verticalAlign=top;resizable=0;rotatable=0;part=1;" vertex="1" parent="O2er0Q2vwYw4dRHvIkDH-26">
          <mxGeometry y="30" width="160" height="90" as="geometry" />
        </mxCell>
        <mxCell id="O2er0Q2vwYw4dRHvIkDH-28" value="" style="edgeStyle=entityRelationEdgeStyle;fontSize=12;html=1;endArrow=ERoneToMany;entryX=0;entryY=0.25;entryDx=0;entryDy=0;" edge="1" parent="1" source="O2er0Q2vwYw4dRHvIkDH-27" target="O2er0Q2vwYw4dRHvIkDH-4">
          <mxGeometry width="100" height="100" relative="1" as="geometry">
            <mxPoint x="320" y="280" as="sourcePoint" />
            <mxPoint x="420" y="180" as="targetPoint" />
          </mxGeometry>
        </mxCell>
        <mxCell id="O2er0Q2vwYw4dRHvIkDH-30" value="" style="edgeStyle=entityRelationEdgeStyle;fontSize=12;html=1;endArrow=ERoneToMany;exitX=0.5;exitY=0;exitDx=0;exitDy=0;" edge="1" parent="1" source="O2er0Q2vwYw4dRHvIkDH-15">
          <mxGeometry width="100" height="100" relative="1" as="geometry">
            <mxPoint x="320" y="280" as="sourcePoint" />
            <mxPoint x="290" y="140" as="targetPoint" />
          </mxGeometry>
        </mxCell>
        <mxCell id="O2er0Q2vwYw4dRHvIkDH-31" value="FlightClass" style="swimlane;childLayout=stackLayout;horizontal=1;startSize=30;horizontalStack=0;rounded=1;fontSize=14;fontStyle=0;strokeWidth=2;resizeParent=0;resizeLast=1;shadow=0;dashed=0;align=center;" vertex="1" parent="1">
          <mxGeometry x="90" y="550" width="160" height="120" as="geometry" />
        </mxCell>
        <mxCell id="O2er0Q2vwYw4dRHvIkDH-32" value="space_name(string)" style="align=left;strokeColor=none;fillColor=none;spacingLeft=4;fontSize=12;verticalAlign=top;resizable=0;rotatable=0;part=1;" vertex="1" parent="O2er0Q2vwYw4dRHvIkDH-31">
          <mxGeometry y="30" width="160" height="90" as="geometry" />
        </mxCell>
        <mxCell id="O2er0Q2vwYw4dRHvIkDH-33" value="" style="edgeStyle=entityRelationEdgeStyle;fontSize=12;html=1;endArrow=ERoneToMany;exitX=0.5;exitY=1;exitDx=0;exitDy=0;" edge="1" parent="1" source="O2er0Q2vwYw4dRHvIkDH-16" target="O2er0Q2vwYw4dRHvIkDH-32">
          <mxGeometry width="100" height="100" relative="1" as="geometry">
            <mxPoint x="320" y="480" as="sourcePoint" />
            <mxPoint x="420" y="380" as="targetPoint" />
          </mxGeometry>
        </mxCell>
      </root>
    </mxGraphModel>
  </diagram>
</mxfile>
